%TF.GenerationSoftware,KiCad,Pcbnew,(6.0.10)*%
%TF.CreationDate,2023-03-17T10:19:52+01:00*%
%TF.ProjectId,MacroBoard_16keys,4d616372-6f42-46f6-9172-645f31366b65,rev?*%
%TF.SameCoordinates,Original*%
%TF.FileFunction,Legend,Bot*%
%TF.FilePolarity,Positive*%
%FSLAX46Y46*%
G04 Gerber Fmt 4.6, Leading zero omitted, Abs format (unit mm)*
G04 Created by KiCad (PCBNEW (6.0.10)) date 2023-03-17 10:19:52*
%MOMM*%
%LPD*%
G01*
G04 APERTURE LIST*
%ADD10C,0.150000*%
%ADD11C,0.120000*%
%ADD12R,1.600000X1.600000*%
%ADD13C,1.600000*%
G04 APERTURE END LIST*
D10*
%TO.C,D1*%
X167638095Y-44152380D02*
X167638095Y-43152380D01*
X167400000Y-43152380D01*
X167257142Y-43200000D01*
X167161904Y-43295238D01*
X167114285Y-43390476D01*
X167066666Y-43580952D01*
X167066666Y-43723809D01*
X167114285Y-43914285D01*
X167161904Y-44009523D01*
X167257142Y-44104761D01*
X167400000Y-44152380D01*
X167638095Y-44152380D01*
X166114285Y-44152380D02*
X166685714Y-44152380D01*
X166400000Y-44152380D02*
X166400000Y-43152380D01*
X166495238Y-43295238D01*
X166590476Y-43390476D01*
X166685714Y-43438095D01*
%TO.C,D2*%
X160813095Y-100077380D02*
X160813095Y-99077380D01*
X160575000Y-99077380D01*
X160432142Y-99125000D01*
X160336904Y-99220238D01*
X160289285Y-99315476D01*
X160241666Y-99505952D01*
X160241666Y-99648809D01*
X160289285Y-99839285D01*
X160336904Y-99934523D01*
X160432142Y-100029761D01*
X160575000Y-100077380D01*
X160813095Y-100077380D01*
X159860714Y-99172619D02*
X159813095Y-99125000D01*
X159717857Y-99077380D01*
X159479761Y-99077380D01*
X159384523Y-99125000D01*
X159336904Y-99172619D01*
X159289285Y-99267857D01*
X159289285Y-99363095D01*
X159336904Y-99505952D01*
X159908333Y-100077380D01*
X159289285Y-100077380D01*
%TO.C,D3*%
X120813095Y-100077380D02*
X120813095Y-99077380D01*
X120575000Y-99077380D01*
X120432142Y-99125000D01*
X120336904Y-99220238D01*
X120289285Y-99315476D01*
X120241666Y-99505952D01*
X120241666Y-99648809D01*
X120289285Y-99839285D01*
X120336904Y-99934523D01*
X120432142Y-100029761D01*
X120575000Y-100077380D01*
X120813095Y-100077380D01*
X119908333Y-99077380D02*
X119289285Y-99077380D01*
X119622619Y-99458333D01*
X119479761Y-99458333D01*
X119384523Y-99505952D01*
X119336904Y-99553571D01*
X119289285Y-99648809D01*
X119289285Y-99886904D01*
X119336904Y-99982142D01*
X119384523Y-100029761D01*
X119479761Y-100077380D01*
X119765476Y-100077380D01*
X119860714Y-100029761D01*
X119908333Y-99982142D01*
%TO.C,D4*%
X113638095Y-44102380D02*
X113638095Y-43102380D01*
X113400000Y-43102380D01*
X113257142Y-43150000D01*
X113161904Y-43245238D01*
X113114285Y-43340476D01*
X113066666Y-43530952D01*
X113066666Y-43673809D01*
X113114285Y-43864285D01*
X113161904Y-43959523D01*
X113257142Y-44054761D01*
X113400000Y-44102380D01*
X113638095Y-44102380D01*
X112209523Y-43435714D02*
X112209523Y-44102380D01*
X112447619Y-43054761D02*
X112685714Y-43769047D01*
X112066666Y-43769047D01*
D11*
%TO.C,D1*%
X170500000Y-45600000D02*
X170500000Y-44500000D01*
X170500000Y-44500000D02*
X164400000Y-44500000D01*
X164400000Y-49900000D02*
X169400000Y-49900000D01*
%TO.C,D2*%
X163675000Y-100425000D02*
X157575000Y-100425000D01*
X157575000Y-105825000D02*
X162575000Y-105825000D01*
X163675000Y-101525000D02*
X163675000Y-100425000D01*
%TO.C,D3*%
X123675000Y-100425000D02*
X117575000Y-100425000D01*
X123675000Y-101525000D02*
X123675000Y-100425000D01*
X117575000Y-105825000D02*
X122575000Y-105825000D01*
D10*
%TO.C,U1*%
X130710000Y-71040000D02*
X148490000Y-71040000D01*
X135790000Y-40560000D02*
X130710000Y-40560000D01*
X148490000Y-40560000D02*
X143410000Y-40560000D01*
X148490000Y-40560000D02*
X148490000Y-71040000D01*
X130710000Y-40560000D02*
X130710000Y-71040000D01*
X135790000Y-38020000D02*
X135790000Y-40560000D01*
X143410000Y-40560000D02*
X143410000Y-38020000D01*
X143410000Y-38020000D02*
X135790000Y-38020000D01*
D11*
%TO.C,D4*%
X110400000Y-49850000D02*
X115400000Y-49850000D01*
X116500000Y-45550000D02*
X116500000Y-44450000D01*
X116500000Y-44450000D02*
X110400000Y-44450000D01*
%TD*%
D12*
%TO.C,U1*%
X147220000Y-41830000D03*
D13*
X147220000Y-44370000D03*
X147220000Y-46910000D03*
X147220000Y-49450000D03*
X147220000Y-51990000D03*
X147220000Y-54530000D03*
X147220000Y-57070000D03*
X147220000Y-59610000D03*
X147220000Y-62150000D03*
X147220000Y-64690000D03*
X147220000Y-67230000D03*
X147220000Y-69770000D03*
X131980000Y-69770000D03*
X131980000Y-67230000D03*
X131980000Y-64690000D03*
X131980000Y-62150000D03*
X131980000Y-59610000D03*
X131980000Y-57070000D03*
X131980000Y-54530000D03*
X131980000Y-51990000D03*
X131980000Y-49450000D03*
X131980000Y-46910000D03*
X131980000Y-44370000D03*
X131980000Y-41830000D03*
%TD*%
M02*
