%TF.GenerationSoftware,KiCad,Pcbnew,(6.0.10)*%
%TF.CreationDate,2023-03-17T10:19:52+01:00*%
%TF.ProjectId,MacroBoard_16keys,4d616372-6f42-46f6-9172-645f31366b65,rev?*%
%TF.SameCoordinates,Original*%
%TF.FileFunction,Copper,L1,Top*%
%TF.FilePolarity,Positive*%
%FSLAX46Y46*%
G04 Gerber Fmt 4.6, Leading zero omitted, Abs format (unit mm)*
G04 Created by KiCad (PCBNEW (6.0.10)) date 2023-03-17 10:19:52*
%MOMM*%
%LPD*%
G01*
G04 APERTURE LIST*
%TA.AperFunction,ComponentPad*%
%ADD10C,2.200000*%
%TD*%
%TA.AperFunction,ComponentPad*%
%ADD11C,2.000000*%
%TD*%
%TA.AperFunction,ComponentPad*%
%ADD12R,3.200000X2.000000*%
%TD*%
%TA.AperFunction,ComponentPad*%
%ADD13R,2.000000X2.000000*%
%TD*%
%TA.AperFunction,ComponentPad*%
%ADD14R,1.600000X1.600000*%
%TD*%
%TA.AperFunction,ComponentPad*%
%ADD15C,1.600000*%
%TD*%
%TA.AperFunction,ViaPad*%
%ADD16C,0.800000*%
%TD*%
%TA.AperFunction,Conductor*%
%ADD17C,0.250000*%
%TD*%
G04 APERTURE END LIST*
D10*
%TO.P,SW10,2*%
%TO.N,Net-(SW10-Pad2)*%
X153410000Y-76140000D03*
%TO.P,SW10,1*%
%TO.N,Net-(SW10-Pad1)*%
X147060000Y-78680000D03*
%TD*%
%TO.P,SW6,1*%
%TO.N,Net-(SW10-Pad1)*%
X127060000Y-78680000D03*
%TO.P,SW6,2*%
%TO.N,Net-(SW6-Pad2)*%
X133410000Y-76140000D03*
%TD*%
%TO.P,SW16,1*%
%TO.N,Net-(SW12-Pad1)*%
X167060000Y-118680000D03*
%TO.P,SW16,2*%
%TO.N,Net-(SW14-Pad2)*%
X173410000Y-116140000D03*
%TD*%
%TO.P,SW7,1*%
%TO.N,Net-(SW11-Pad1)*%
X127060000Y-98680000D03*
%TO.P,SW7,2*%
%TO.N,Net-(SW6-Pad2)*%
X133410000Y-96140000D03*
%TD*%
%TO.P,SW4,2*%
%TO.N,Net-(SW2-Pad2)*%
X113410000Y-116140000D03*
%TO.P,SW4,1*%
%TO.N,Net-(SW12-Pad1)*%
X107060000Y-118680000D03*
%TD*%
D11*
%TO.P,SW1,S2,S2*%
%TO.N,GND*%
X119800000Y-44620000D03*
%TO.P,SW1,S1,S1*%
%TO.N,Net-(SW1-PadS1)*%
X119800000Y-49620000D03*
D12*
%TO.P,SW1,MP*%
%TO.N,N/C*%
X112800000Y-52720000D03*
X112800000Y-41520000D03*
D11*
%TO.P,SW1,C,C*%
%TO.N,GND*%
X105300000Y-47120000D03*
%TO.P,SW1,B,B*%
%TO.N,Net-(SW1-PadB)*%
X105300000Y-49620000D03*
D13*
%TO.P,SW1,A,A*%
%TO.N,Net-(SW1-PadA)*%
X105300000Y-44620000D03*
%TD*%
D10*
%TO.P,SW15,1*%
%TO.N,Net-(SW11-Pad1)*%
X167060000Y-98680000D03*
%TO.P,SW15,2*%
%TO.N,Net-(SW14-Pad2)*%
X173410000Y-96140000D03*
%TD*%
%TO.P,SW14,1*%
%TO.N,Net-(SW10-Pad1)*%
X167060000Y-78680000D03*
%TO.P,SW14,2*%
%TO.N,Net-(SW14-Pad2)*%
X173410000Y-76140000D03*
%TD*%
%TO.P,SW8,1*%
%TO.N,Net-(SW12-Pad1)*%
X127060000Y-118680000D03*
%TO.P,SW8,2*%
%TO.N,Net-(SW6-Pad2)*%
X133410000Y-116140000D03*
%TD*%
D13*
%TO.P,SW5,A,A*%
%TO.N,Net-(SW5-PadA)*%
X159500000Y-44700000D03*
D11*
%TO.P,SW5,B,B*%
%TO.N,Net-(SW5-PadB)*%
X159500000Y-49700000D03*
%TO.P,SW5,C,C*%
%TO.N,GND*%
X159500000Y-47200000D03*
D12*
%TO.P,SW5,MP*%
%TO.N,N/C*%
X167000000Y-41600000D03*
X167000000Y-52800000D03*
D11*
%TO.P,SW5,S1,S1*%
%TO.N,Net-(SW5-PadS1)*%
X174000000Y-49700000D03*
%TO.P,SW5,S2,S2*%
%TO.N,GND*%
X174000000Y-44700000D03*
%TD*%
D10*
%TO.P,SW2,1*%
%TO.N,Net-(SW10-Pad1)*%
X107060000Y-78680000D03*
%TO.P,SW2,2*%
%TO.N,Net-(SW2-Pad2)*%
X113410000Y-76140000D03*
%TD*%
%TO.P,SW12,1*%
%TO.N,Net-(SW12-Pad1)*%
X147060000Y-118680000D03*
%TO.P,SW12,2*%
%TO.N,Net-(SW10-Pad2)*%
X153410000Y-116140000D03*
%TD*%
%TO.P,SW11,2*%
%TO.N,Net-(SW10-Pad2)*%
X153410000Y-96140000D03*
%TO.P,SW11,1*%
%TO.N,Net-(SW11-Pad1)*%
X147060000Y-98680000D03*
%TD*%
%TO.P,SW3,1*%
%TO.N,Net-(SW11-Pad1)*%
X107060000Y-98680000D03*
%TO.P,SW3,2*%
%TO.N,Net-(SW2-Pad2)*%
X113410000Y-96140000D03*
%TD*%
D14*
%TO.P,U1,1,TX*%
%TO.N,unconnected-(U1-Pad1)*%
X147220000Y-41830000D03*
D15*
%TO.P,U1,2,RX*%
%TO.N,unconnected-(U1-Pad2)*%
X147220000Y-44370000D03*
%TO.P,U1,3,GND*%
%TO.N,unconnected-(U1-Pad3)*%
X147220000Y-46910000D03*
%TO.P,U1,4,GND*%
%TO.N,unconnected-(U1-Pad4)*%
X147220000Y-49450000D03*
%TO.P,U1,5,SDA*%
%TO.N,Net-(SW2-Pad2)*%
X147220000Y-51990000D03*
%TO.P,U1,6,SCL*%
%TO.N,Net-(SW6-Pad2)*%
X147220000Y-54530000D03*
%TO.P,U1,7,D4*%
%TO.N,Net-(SW10-Pad2)*%
X147220000Y-57070000D03*
%TO.P,U1,8,C6*%
%TO.N,Net-(SW14-Pad2)*%
X147220000Y-59610000D03*
%TO.P,U1,9,D7*%
%TO.N,Net-(SW12-Pad1)*%
X147220000Y-62150000D03*
%TO.P,U1,10,E6*%
%TO.N,Net-(SW11-Pad1)*%
X147220000Y-64690000D03*
%TO.P,U1,11,B4*%
%TO.N,Net-(SW10-Pad1)*%
X147220000Y-67230000D03*
%TO.P,U1,12,B5*%
%TO.N,Net-(SW1-PadS1)*%
X147220000Y-69770000D03*
%TO.P,U1,13,B6*%
%TO.N,Net-(SW1-PadB)*%
X131980000Y-69770000D03*
%TO.P,U1,14,B2*%
%TO.N,Net-(SW1-PadA)*%
X131980000Y-67230000D03*
%TO.P,U1,15,B3*%
%TO.N,Net-(SW5-PadB)*%
X131980000Y-64690000D03*
%TO.P,U1,16,B1*%
%TO.N,Net-(SW5-PadA)*%
X131980000Y-62150000D03*
%TO.P,U1,17,F7*%
%TO.N,Net-(SW5-PadS1)*%
X131980000Y-59610000D03*
%TO.P,U1,18,F6*%
%TO.N,Net-(D1-Pad6)*%
X131980000Y-57070000D03*
%TO.P,U1,19,F5*%
%TO.N,Net-(D1-Pad5)*%
X131980000Y-54530000D03*
%TO.P,U1,20,F4*%
%TO.N,Net-(D1-Pad4)*%
X131980000Y-51990000D03*
%TO.P,U1,21,VCC*%
%TO.N,unconnected-(U1-Pad21)*%
X131980000Y-49450000D03*
%TO.P,U1,22,RST*%
%TO.N,unconnected-(U1-Pad22)*%
X131980000Y-46910000D03*
%TO.P,U1,23,GND*%
%TO.N,GND*%
X131980000Y-44370000D03*
%TO.P,U1,24,RAW*%
%TO.N,unconnected-(U1-Pad24)*%
X131980000Y-41830000D03*
%TD*%
D16*
%TO.N,Net-(D1-Pad4)*%
X117300000Y-108500000D03*
X104200000Y-59900000D03*
X110700000Y-50600000D03*
%TO.N,Net-(D1-Pad5)*%
X108200000Y-51700000D03*
%TO.N,Net-(SW10-Pad1)*%
X157500000Y-78700000D03*
X161500000Y-78600000D03*
%TO.N,Net-(SW11-Pad1)*%
X161700000Y-98600000D03*
X157320000Y-98680000D03*
%TO.N,GND*%
X166675000Y-44525000D03*
%TO.N,Net-(SW10-Pad2)*%
X155300000Y-97700000D03*
X155900000Y-83600000D03*
X155450000Y-106850000D03*
X155800000Y-76100000D03*
%TO.N,Net-(SW2-Pad2)*%
X115300000Y-97300000D03*
X115900000Y-76100000D03*
X115300000Y-106900000D03*
X115900000Y-83600000D03*
%TO.N,Net-(SW6-Pad2)*%
X135800000Y-83600000D03*
X135400000Y-106900000D03*
X135400000Y-97600000D03*
X135800000Y-75900000D03*
%TO.N,Net-(SW14-Pad2)*%
X175200000Y-97930000D03*
X175200000Y-106900000D03*
%TO.N,Net-(SW1-PadS1)*%
X135800495Y-59299505D03*
%TD*%
D17*
%TO.N,Net-(SW11-Pad1)*%
X141700000Y-93700000D02*
X141700000Y-70210000D01*
X147060000Y-98680000D02*
X142080000Y-93700000D01*
X141700000Y-70210000D02*
X147220000Y-64690000D01*
X142080000Y-93700000D02*
X141700000Y-93700000D01*
%TO.N,Net-(SW6-Pad2)*%
X140200000Y-61550000D02*
X147220000Y-54530000D01*
X140200000Y-67000000D02*
X140200000Y-61550000D01*
X135905001Y-71294999D02*
X140200000Y-67000000D01*
X135905001Y-75794999D02*
X135905001Y-71294999D01*
X135800000Y-75900000D02*
X135905001Y-75794999D01*
%TO.N,Net-(SW2-Pad2)*%
X141510000Y-51990000D02*
X147220000Y-51990000D01*
X139600000Y-53900000D02*
X141510000Y-51990000D01*
X133427332Y-73120254D02*
X139600000Y-66947586D01*
X133427332Y-73131427D02*
X133427332Y-73120254D01*
X139600000Y-66947586D02*
X139600000Y-53900000D01*
X115900000Y-76100000D02*
X130458759Y-76100000D01*
X130458759Y-76100000D02*
X133427332Y-73131427D01*
X115800000Y-76200000D02*
X115800000Y-83500000D01*
X115800000Y-83500000D02*
X115900000Y-83600000D01*
X115900000Y-76100000D02*
X115800000Y-76200000D01*
%TO.N,Net-(SW6-Pad2)*%
X135800000Y-83600000D02*
X135800000Y-75900000D01*
%TO.N,Net-(SW10-Pad2)*%
X155800000Y-76100000D02*
X155900000Y-76200000D01*
X155900000Y-76200000D02*
X155900000Y-83600000D01*
%TO.N,Net-(SW2-Pad2)*%
X115300000Y-106900000D02*
X115300000Y-97300000D01*
%TO.N,Net-(SW1-PadA)*%
X106700000Y-52900000D02*
X106700000Y-46020000D01*
X108700000Y-54900000D02*
X106700000Y-52900000D01*
X119650000Y-54900000D02*
X108700000Y-54900000D01*
X131980000Y-67230000D02*
X119650000Y-54900000D01*
X106700000Y-46020000D02*
X105300000Y-44620000D01*
%TO.N,Net-(SW1-PadB)*%
X108513604Y-55350000D02*
X117560000Y-55350000D01*
X105950000Y-52786396D02*
X108513604Y-55350000D01*
X106050000Y-50370000D02*
X105950000Y-50470000D01*
X105300000Y-49620000D02*
X106050000Y-50370000D01*
X105950000Y-50470000D02*
X105950000Y-52786396D01*
X117560000Y-55350000D02*
X131980000Y-69770000D01*
%TO.N,Net-(D1-Pad4)*%
X103294999Y-96930254D02*
X114864745Y-108500000D01*
X110700000Y-50600000D02*
X110800000Y-50600000D01*
X110800000Y-50600000D02*
X114400000Y-47000000D01*
X114864745Y-108500000D02*
X117300000Y-108500000D01*
X103294999Y-60805001D02*
X103294999Y-96930254D01*
X114400000Y-47000000D02*
X126990000Y-47000000D01*
X104200000Y-59900000D02*
X103294999Y-60805001D01*
X126990000Y-47000000D02*
X131980000Y-51990000D01*
%TO.N,Net-(D1-Pad5)*%
X110725305Y-51700000D02*
X108300000Y-51700000D01*
X114625305Y-47800000D02*
X110725305Y-51700000D01*
X125250000Y-47800000D02*
X114625305Y-47800000D01*
X125250000Y-47800000D02*
X131980000Y-54530000D01*
%TO.N,Net-(SW10-Pad1)*%
X161500000Y-78600000D02*
X161400000Y-78700000D01*
X161400000Y-78700000D02*
X157500000Y-78700000D01*
%TO.N,Net-(SW11-Pad1)*%
X161620000Y-98680000D02*
X161700000Y-98600000D01*
X157320000Y-98680000D02*
X161620000Y-98680000D01*
%TO.N,Net-(SW12-Pad1)*%
X148615634Y-118680000D02*
X151975001Y-115320633D01*
X151975001Y-115320633D02*
X151975001Y-66905001D01*
X147060000Y-118680000D02*
X148615634Y-118680000D01*
X151975001Y-66905001D02*
X147220000Y-62150000D01*
%TO.N,GND*%
X162400000Y-44300000D02*
X159500000Y-47200000D01*
X166450000Y-44300000D02*
X162400000Y-44300000D01*
X166675000Y-44525000D02*
X166450000Y-44300000D01*
%TO.N,Net-(SW10-Pad2)*%
X155300000Y-97700000D02*
X155300000Y-106700000D01*
X155300000Y-106700000D02*
X155450000Y-106850000D01*
X153410000Y-63260000D02*
X147220000Y-57070000D01*
X153410000Y-76140000D02*
X153410000Y-63260000D01*
%TO.N,Net-(SW6-Pad2)*%
X135400000Y-106900000D02*
X135400000Y-97600000D01*
%TO.N,Net-(SW14-Pad2)*%
X175200000Y-106900000D02*
X175200000Y-97930000D01*
X146095000Y-58485000D02*
X147220000Y-59610000D01*
X155303759Y-55945000D02*
X146754009Y-55945000D01*
X173410000Y-74051241D02*
X155303759Y-55945000D01*
X146754009Y-55945000D02*
X146095000Y-56604009D01*
X146095000Y-56604009D02*
X146095000Y-58485000D01*
X173410000Y-76140000D02*
X173410000Y-74051241D01*
%TO.N,Net-(SW1-PadS1)*%
X132270991Y-55770000D02*
X128270000Y-55770000D01*
X135800495Y-59299505D02*
X132270991Y-55770000D01*
X128270000Y-55770000D02*
X128200000Y-55700000D01*
X128200000Y-55700000D02*
X125880000Y-55700000D01*
X125880000Y-55700000D02*
X119800000Y-49620000D01*
%TO.N,Net-(SW5-PadA)*%
X138700000Y-53463604D02*
X143838604Y-48325000D01*
X131980000Y-62150000D02*
X135750000Y-62150000D01*
X138700000Y-59200000D02*
X138700000Y-53463604D01*
X135750000Y-62150000D02*
X138700000Y-59200000D01*
X155875000Y-48325000D02*
X159500000Y-44700000D01*
X143838604Y-48325000D02*
X155875000Y-48325000D01*
%TO.N,Net-(SW5-PadB)*%
X158625000Y-50575000D02*
X159500000Y-49700000D01*
X139150000Y-60675305D02*
X139150000Y-53650000D01*
X142225000Y-50575000D02*
X158625000Y-50575000D01*
X134335306Y-65489999D02*
X139150000Y-60675305D01*
X139150000Y-53650000D02*
X142225000Y-50575000D01*
X131980000Y-64690000D02*
X132779999Y-65489999D01*
X132779999Y-65489999D02*
X134335306Y-65489999D01*
%TO.N,Net-(SW5-PadS1)*%
X145827208Y-45700000D02*
X155850000Y-45700000D01*
X135740001Y-60409999D02*
X138250000Y-57900000D01*
X138250000Y-53277208D02*
X145827208Y-45700000D01*
X138250000Y-57900000D02*
X138250000Y-53277208D01*
X167675000Y-43375000D02*
X174000000Y-49700000D01*
X158175000Y-43375000D02*
X167675000Y-43375000D01*
X155850000Y-45700000D02*
X158175000Y-43375000D01*
X132779999Y-60409999D02*
X135740001Y-60409999D01*
X131980000Y-59610000D02*
X132779999Y-60409999D01*
%TD*%
M02*
