%TF.GenerationSoftware,KiCad,Pcbnew,(6.0.10)*%
%TF.CreationDate,2023-03-17T10:19:52+01:00*%
%TF.ProjectId,MacroBoard_16keys,4d616372-6f42-46f6-9172-645f31366b65,rev?*%
%TF.SameCoordinates,Original*%
%TF.FileFunction,Copper,L2,Bot*%
%TF.FilePolarity,Positive*%
%FSLAX46Y46*%
G04 Gerber Fmt 4.6, Leading zero omitted, Abs format (unit mm)*
G04 Created by KiCad (PCBNEW (6.0.10)) date 2023-03-17 10:19:52*
%MOMM*%
%LPD*%
G01*
G04 APERTURE LIST*
%TA.AperFunction,ComponentPad*%
%ADD10C,2.200000*%
%TD*%
%TA.AperFunction,ComponentPad*%
%ADD11C,2.000000*%
%TD*%
%TA.AperFunction,ComponentPad*%
%ADD12R,3.200000X2.000000*%
%TD*%
%TA.AperFunction,ComponentPad*%
%ADD13R,2.000000X2.000000*%
%TD*%
%TA.AperFunction,SMDPad,CuDef*%
%ADD14R,2.000000X1.100000*%
%TD*%
%TA.AperFunction,ComponentPad*%
%ADD15R,1.600000X1.600000*%
%TD*%
%TA.AperFunction,ComponentPad*%
%ADD16C,1.600000*%
%TD*%
%TA.AperFunction,ViaPad*%
%ADD17C,0.800000*%
%TD*%
%TA.AperFunction,Conductor*%
%ADD18C,0.250000*%
%TD*%
G04 APERTURE END LIST*
D10*
%TO.P,SW10,2*%
%TO.N,Net-(SW10-Pad2)*%
X153410000Y-76140000D03*
%TO.P,SW10,1*%
%TO.N,Net-(SW10-Pad1)*%
X147060000Y-78680000D03*
%TD*%
%TO.P,SW6,1*%
%TO.N,Net-(SW10-Pad1)*%
X127060000Y-78680000D03*
%TO.P,SW6,2*%
%TO.N,Net-(SW6-Pad2)*%
X133410000Y-76140000D03*
%TD*%
%TO.P,SW16,1*%
%TO.N,Net-(SW12-Pad1)*%
X167060000Y-118680000D03*
%TO.P,SW16,2*%
%TO.N,Net-(SW14-Pad2)*%
X173410000Y-116140000D03*
%TD*%
%TO.P,SW7,1*%
%TO.N,Net-(SW11-Pad1)*%
X127060000Y-98680000D03*
%TO.P,SW7,2*%
%TO.N,Net-(SW6-Pad2)*%
X133410000Y-96140000D03*
%TD*%
%TO.P,SW4,2*%
%TO.N,Net-(SW2-Pad2)*%
X113410000Y-116140000D03*
%TO.P,SW4,1*%
%TO.N,Net-(SW12-Pad1)*%
X107060000Y-118680000D03*
%TD*%
D11*
%TO.P,SW1,S2,S2*%
%TO.N,GND*%
X119800000Y-44620000D03*
%TO.P,SW1,S1,S1*%
%TO.N,Net-(SW1-PadS1)*%
X119800000Y-49620000D03*
D12*
%TO.P,SW1,MP*%
%TO.N,N/C*%
X112800000Y-52720000D03*
X112800000Y-41520000D03*
D11*
%TO.P,SW1,C,C*%
%TO.N,GND*%
X105300000Y-47120000D03*
%TO.P,SW1,B,B*%
%TO.N,Net-(SW1-PadB)*%
X105300000Y-49620000D03*
D13*
%TO.P,SW1,A,A*%
%TO.N,Net-(SW1-PadA)*%
X105300000Y-44620000D03*
%TD*%
D10*
%TO.P,SW15,1*%
%TO.N,Net-(SW11-Pad1)*%
X167060000Y-98680000D03*
%TO.P,SW15,2*%
%TO.N,Net-(SW14-Pad2)*%
X173410000Y-96140000D03*
%TD*%
%TO.P,SW14,1*%
%TO.N,Net-(SW10-Pad1)*%
X167060000Y-78680000D03*
%TO.P,SW14,2*%
%TO.N,Net-(SW14-Pad2)*%
X173410000Y-76140000D03*
%TD*%
%TO.P,SW8,1*%
%TO.N,Net-(SW12-Pad1)*%
X127060000Y-118680000D03*
%TO.P,SW8,2*%
%TO.N,Net-(SW6-Pad2)*%
X133410000Y-116140000D03*
%TD*%
D13*
%TO.P,SW5,A,A*%
%TO.N,Net-(SW5-PadA)*%
X159500000Y-44700000D03*
D11*
%TO.P,SW5,B,B*%
%TO.N,Net-(SW5-PadB)*%
X159500000Y-49700000D03*
%TO.P,SW5,C,C*%
%TO.N,GND*%
X159500000Y-47200000D03*
D12*
%TO.P,SW5,MP*%
%TO.N,N/C*%
X167000000Y-41600000D03*
X167000000Y-52800000D03*
D11*
%TO.P,SW5,S1,S1*%
%TO.N,Net-(SW5-PadS1)*%
X174000000Y-49700000D03*
%TO.P,SW5,S2,S2*%
%TO.N,GND*%
X174000000Y-44700000D03*
%TD*%
D10*
%TO.P,SW2,1*%
%TO.N,Net-(SW10-Pad1)*%
X107060000Y-78680000D03*
%TO.P,SW2,2*%
%TO.N,Net-(SW2-Pad2)*%
X113410000Y-76140000D03*
%TD*%
%TO.P,SW12,1*%
%TO.N,Net-(SW12-Pad1)*%
X147060000Y-118680000D03*
%TO.P,SW12,2*%
%TO.N,Net-(SW10-Pad2)*%
X153410000Y-116140000D03*
%TD*%
%TO.P,SW11,2*%
%TO.N,Net-(SW10-Pad2)*%
X153410000Y-96140000D03*
%TO.P,SW11,1*%
%TO.N,Net-(SW11-Pad1)*%
X147060000Y-98680000D03*
%TD*%
%TO.P,SW3,1*%
%TO.N,Net-(SW11-Pad1)*%
X107060000Y-98680000D03*
%TO.P,SW3,2*%
%TO.N,Net-(SW2-Pad2)*%
X113410000Y-96140000D03*
%TD*%
D14*
%TO.P,D1,1,RK*%
%TO.N,GND*%
X169300000Y-45500000D03*
%TO.P,D1,2,GK*%
X169300000Y-47200000D03*
%TO.P,D1,3,BK*%
X169300000Y-48900000D03*
%TO.P,D1,4,BA*%
%TO.N,Net-(D1-Pad4)*%
X164500000Y-48900000D03*
%TO.P,D1,5,GA*%
%TO.N,Net-(D1-Pad5)*%
X164500000Y-47200000D03*
%TO.P,D1,6,RA*%
%TO.N,Net-(D1-Pad6)*%
X164500000Y-45500000D03*
%TD*%
%TO.P,D2,1,RK*%
%TO.N,GND*%
X162475000Y-101425000D03*
%TO.P,D2,2,GK*%
X162475000Y-103125000D03*
%TO.P,D2,3,BK*%
X162475000Y-104825000D03*
%TO.P,D2,4,BA*%
%TO.N,Net-(D1-Pad4)*%
X157675000Y-104825000D03*
%TO.P,D2,5,GA*%
%TO.N,Net-(D1-Pad5)*%
X157675000Y-103125000D03*
%TO.P,D2,6,RA*%
%TO.N,Net-(D1-Pad6)*%
X157675000Y-101425000D03*
%TD*%
%TO.P,D3,1,RK*%
%TO.N,GND*%
X122475000Y-101425000D03*
%TO.P,D3,2,GK*%
X122475000Y-103125000D03*
%TO.P,D3,3,BK*%
X122475000Y-104825000D03*
%TO.P,D3,4,BA*%
%TO.N,Net-(D1-Pad4)*%
X117675000Y-104825000D03*
%TO.P,D3,5,GA*%
%TO.N,Net-(D1-Pad5)*%
X117675000Y-103125000D03*
%TO.P,D3,6,RA*%
%TO.N,Net-(D1-Pad6)*%
X117675000Y-101425000D03*
%TD*%
D15*
%TO.P,U1,1,TX*%
%TO.N,unconnected-(U1-Pad1)*%
X147220000Y-41830000D03*
D16*
%TO.P,U1,2,RX*%
%TO.N,unconnected-(U1-Pad2)*%
X147220000Y-44370000D03*
%TO.P,U1,3,GND*%
%TO.N,unconnected-(U1-Pad3)*%
X147220000Y-46910000D03*
%TO.P,U1,4,GND*%
%TO.N,unconnected-(U1-Pad4)*%
X147220000Y-49450000D03*
%TO.P,U1,5,SDA*%
%TO.N,Net-(SW2-Pad2)*%
X147220000Y-51990000D03*
%TO.P,U1,6,SCL*%
%TO.N,Net-(SW6-Pad2)*%
X147220000Y-54530000D03*
%TO.P,U1,7,D4*%
%TO.N,Net-(SW10-Pad2)*%
X147220000Y-57070000D03*
%TO.P,U1,8,C6*%
%TO.N,Net-(SW14-Pad2)*%
X147220000Y-59610000D03*
%TO.P,U1,9,D7*%
%TO.N,Net-(SW12-Pad1)*%
X147220000Y-62150000D03*
%TO.P,U1,10,E6*%
%TO.N,Net-(SW11-Pad1)*%
X147220000Y-64690000D03*
%TO.P,U1,11,B4*%
%TO.N,Net-(SW10-Pad1)*%
X147220000Y-67230000D03*
%TO.P,U1,12,B5*%
%TO.N,Net-(SW1-PadS1)*%
X147220000Y-69770000D03*
%TO.P,U1,13,B6*%
%TO.N,Net-(SW1-PadB)*%
X131980000Y-69770000D03*
%TO.P,U1,14,B2*%
%TO.N,Net-(SW1-PadA)*%
X131980000Y-67230000D03*
%TO.P,U1,15,B3*%
%TO.N,Net-(SW5-PadB)*%
X131980000Y-64690000D03*
%TO.P,U1,16,B1*%
%TO.N,Net-(SW5-PadA)*%
X131980000Y-62150000D03*
%TO.P,U1,17,F7*%
%TO.N,Net-(SW5-PadS1)*%
X131980000Y-59610000D03*
%TO.P,U1,18,F6*%
%TO.N,Net-(D1-Pad6)*%
X131980000Y-57070000D03*
%TO.P,U1,19,F5*%
%TO.N,Net-(D1-Pad5)*%
X131980000Y-54530000D03*
%TO.P,U1,20,F4*%
%TO.N,Net-(D1-Pad4)*%
X131980000Y-51990000D03*
%TO.P,U1,21,VCC*%
%TO.N,unconnected-(U1-Pad21)*%
X131980000Y-49450000D03*
%TO.P,U1,22,RST*%
%TO.N,unconnected-(U1-Pad22)*%
X131980000Y-46910000D03*
%TO.P,U1,23,GND*%
%TO.N,GND*%
X131980000Y-44370000D03*
%TO.P,U1,24,RAW*%
%TO.N,unconnected-(U1-Pad24)*%
X131980000Y-41830000D03*
%TD*%
D14*
%TO.P,D4,1,RK*%
%TO.N,GND*%
X115300000Y-45450000D03*
%TO.P,D4,2,GK*%
X115300000Y-47150000D03*
%TO.P,D4,3,BK*%
X115300000Y-48850000D03*
%TO.P,D4,4,BA*%
%TO.N,Net-(D1-Pad4)*%
X110500000Y-48850000D03*
%TO.P,D4,5,GA*%
%TO.N,Net-(D1-Pad5)*%
X110500000Y-47150000D03*
%TO.P,D4,6,RA*%
%TO.N,Net-(D1-Pad6)*%
X110500000Y-45450000D03*
%TD*%
D17*
%TO.N,Net-(D1-Pad4)*%
X117300000Y-108500000D03*
X104200000Y-59900000D03*
X110700000Y-50600000D03*
%TO.N,Net-(D1-Pad5)*%
X108200000Y-51700000D03*
%TO.N,Net-(SW10-Pad1)*%
X157500000Y-78700000D03*
X161500000Y-78600000D03*
%TO.N,Net-(SW11-Pad1)*%
X161700000Y-98600000D03*
X157320000Y-98680000D03*
%TO.N,GND*%
X166675000Y-44525000D03*
%TO.N,Net-(SW10-Pad2)*%
X155300000Y-97700000D03*
X155900000Y-83600000D03*
X155450000Y-106850000D03*
X155800000Y-76100000D03*
%TO.N,Net-(SW2-Pad2)*%
X115300000Y-97300000D03*
X115900000Y-76100000D03*
X115300000Y-106900000D03*
X115900000Y-83600000D03*
%TO.N,Net-(SW6-Pad2)*%
X135800000Y-83600000D03*
X135400000Y-106900000D03*
X135400000Y-97600000D03*
X135800000Y-75900000D03*
%TO.N,Net-(SW14-Pad2)*%
X175200000Y-97930000D03*
X175200000Y-106900000D03*
%TO.N,Net-(SW1-PadS1)*%
X135800495Y-59299505D03*
%TD*%
D18*
%TO.N,Net-(D1-Pad6)*%
X124150000Y-99000000D02*
X126575000Y-101425000D01*
X121350000Y-99000000D02*
X124150000Y-99000000D01*
X118925000Y-101425000D02*
X121350000Y-99000000D01*
X126575000Y-101425000D02*
X157675000Y-101425000D01*
X117675000Y-101425000D02*
X118925000Y-101425000D01*
%TO.N,Net-(D1-Pad5)*%
X121386396Y-99600000D02*
X119500000Y-101486396D01*
X119500000Y-101486396D02*
X119500000Y-103000000D01*
X123900000Y-99600000D02*
X121386396Y-99600000D01*
X119375000Y-103125000D02*
X117675000Y-103125000D01*
X157675000Y-103125000D02*
X127425000Y-103125000D01*
X127425000Y-103125000D02*
X123900000Y-99600000D01*
X119500000Y-103000000D02*
X119375000Y-103125000D01*
%TO.N,Net-(D1-Pad4)*%
X123650000Y-100200000D02*
X128275000Y-104825000D01*
X121600000Y-100200000D02*
X123650000Y-100200000D01*
X119950000Y-101850000D02*
X121600000Y-100200000D01*
X128275000Y-104825000D02*
X157675000Y-104825000D01*
X118925000Y-104825000D02*
X119950000Y-103800000D01*
X119950000Y-103800000D02*
X119950000Y-101850000D01*
X117675000Y-104825000D02*
X118925000Y-104825000D01*
%TO.N,Net-(D1-Pad5)*%
X101800000Y-103125000D02*
X117675000Y-103125000D01*
X108050000Y-54950000D02*
X101800000Y-61200000D01*
X108200000Y-51820000D02*
X108050000Y-51970000D01*
X108050000Y-51970000D02*
X108050000Y-54950000D01*
X108200000Y-51700000D02*
X108200000Y-51820000D01*
X101800000Y-61200000D02*
X101800000Y-103125000D01*
%TO.N,Net-(D1-Pad4)*%
X110700000Y-53400000D02*
X110700000Y-50600000D01*
X104200000Y-59900000D02*
X110700000Y-53400000D01*
%TO.N,GND*%
X118285000Y-41355000D02*
X119720000Y-39920000D01*
X118265000Y-41355000D02*
X118285000Y-41355000D01*
X115300000Y-45450000D02*
X115300000Y-44320000D01*
X119720000Y-39920000D02*
X121580000Y-39920000D01*
X107350000Y-39920000D02*
X119720000Y-39920000D01*
X115300000Y-44320000D02*
X118265000Y-41355000D01*
X121380000Y-39920000D02*
X121580000Y-39920000D01*
X119800000Y-41500000D02*
X121380000Y-39920000D01*
X121580000Y-39920000D02*
X121760000Y-40100000D01*
X103975000Y-43295000D02*
X107350000Y-39920000D01*
X105300000Y-47120000D02*
X103975000Y-45795000D01*
X103975000Y-45795000D02*
X103975000Y-43295000D01*
X126030000Y-44370000D02*
X131980000Y-44370000D01*
X121760000Y-40100000D02*
X126030000Y-44370000D01*
%TO.N,Net-(SW2-Pad2)*%
X115860000Y-76140000D02*
X113410000Y-76140000D01*
X115900000Y-76100000D02*
X115860000Y-76140000D01*
%TO.N,Net-(SW6-Pad2)*%
X135560000Y-76140000D02*
X133410000Y-76140000D01*
X135800000Y-75900000D02*
X135560000Y-76140000D01*
%TO.N,Net-(SW10-Pad2)*%
X155800000Y-76100000D02*
X155760000Y-76140000D01*
X155760000Y-76140000D02*
X153410000Y-76140000D01*
X154000000Y-83600000D02*
X153410000Y-84190000D01*
X155900000Y-83600000D02*
X154000000Y-83600000D01*
X153410000Y-84190000D02*
X153410000Y-96140000D01*
%TO.N,Net-(SW6-Pad2)*%
X133410000Y-83990000D02*
X133410000Y-96140000D01*
X135800000Y-83600000D02*
X133800000Y-83600000D01*
X133800000Y-83600000D02*
X133410000Y-83990000D01*
%TO.N,Net-(SW2-Pad2)*%
X113800000Y-83600000D02*
X113410000Y-83990000D01*
X113410000Y-83990000D02*
X113410000Y-96140000D01*
X115900000Y-83600000D02*
X113800000Y-83600000D01*
%TO.N,Net-(SW14-Pad2)*%
X174930000Y-97930000D02*
X175200000Y-97930000D01*
X173410000Y-96410000D02*
X174930000Y-97930000D01*
X173410000Y-96140000D02*
X173410000Y-96410000D01*
%TO.N,Net-(SW10-Pad2)*%
X154800000Y-97700000D02*
X155300000Y-97700000D01*
X153410000Y-96310000D02*
X154800000Y-97700000D01*
X153410000Y-96140000D02*
X153410000Y-96310000D01*
%TO.N,Net-(SW6-Pad2)*%
X133410000Y-113137586D02*
X133410000Y-116140000D01*
X133400000Y-113127586D02*
X133410000Y-113137586D01*
X133400000Y-108900000D02*
X133400000Y-113127586D01*
X135400000Y-106900000D02*
X133400000Y-108900000D01*
%TO.N,Net-(SW2-Pad2)*%
X115300000Y-106900000D02*
X113410000Y-108790000D01*
X113410000Y-108790000D02*
X113410000Y-116140000D01*
%TO.N,Net-(D1-Pad4)*%
X117675000Y-104825000D02*
X117675000Y-108125000D01*
X110500000Y-50400000D02*
X110500000Y-48850000D01*
X158125000Y-104825000D02*
X160000000Y-102950000D01*
X157675000Y-104825000D02*
X158125000Y-104825000D01*
X117675000Y-108125000D02*
X117300000Y-108500000D01*
X160000000Y-102950000D02*
X160000000Y-58546625D01*
X163200000Y-50200000D02*
X164500000Y-48900000D01*
X163200000Y-55346625D02*
X163200000Y-50200000D01*
X160000000Y-58546625D02*
X163200000Y-55346625D01*
%TO.N,Net-(D1-Pad5)*%
X162750000Y-55160229D02*
X162750000Y-48500000D01*
X159400000Y-102200000D02*
X159400000Y-58510229D01*
X108670000Y-47150000D02*
X108200000Y-47620000D01*
X159400000Y-58510229D02*
X162750000Y-55160229D01*
X157675000Y-103125000D02*
X158475000Y-103125000D01*
X162750000Y-48500000D02*
X164050000Y-47200000D01*
X108200000Y-47620000D02*
X108200000Y-51700000D01*
X110500000Y-47150000D02*
X108670000Y-47150000D01*
X158475000Y-103125000D02*
X159400000Y-102200000D01*
X164050000Y-47200000D02*
X164500000Y-47200000D01*
%TO.N,Net-(D1-Pad6)*%
X117650000Y-101400000D02*
X102500000Y-101400000D01*
X111000000Y-45450000D02*
X111825000Y-46275000D01*
X117675000Y-101425000D02*
X117650000Y-101400000D01*
X102500000Y-101400000D02*
X102500000Y-66400000D01*
X110500000Y-45450000D02*
X111000000Y-45450000D01*
X133105000Y-58195000D02*
X159078833Y-58195000D01*
X114930000Y-51600000D02*
X126510000Y-51600000D01*
X104900000Y-64000000D02*
X125050000Y-64000000D01*
X164050000Y-45500000D02*
X164500000Y-45500000D01*
X159078833Y-58195000D02*
X162300000Y-54973833D01*
X162300000Y-47250000D02*
X164050000Y-45500000D01*
X131980000Y-57070000D02*
X133105000Y-58195000D01*
X162300000Y-54973833D02*
X162300000Y-47250000D01*
X125050000Y-64000000D02*
X131980000Y-57070000D01*
X111825000Y-46275000D02*
X111825000Y-48495000D01*
X126510000Y-51600000D02*
X131980000Y-57070000D01*
X111825000Y-48495000D02*
X114930000Y-51600000D01*
X102500000Y-66400000D02*
X104900000Y-64000000D01*
%TO.N,Net-(SW10-Pad1)*%
X161500000Y-78600000D02*
X161580000Y-78680000D01*
X147060000Y-78680000D02*
X157480000Y-78680000D01*
X157500000Y-78700000D02*
X157480000Y-78680000D01*
X145745001Y-77365001D02*
X147060000Y-78680000D01*
X147060000Y-78680000D02*
X127060000Y-78680000D01*
X145745001Y-68704999D02*
X145745001Y-77365001D01*
X161580000Y-78680000D02*
X167060000Y-78680000D01*
X107060000Y-78680000D02*
X127060000Y-78680000D01*
X147220000Y-67230000D02*
X145745001Y-68704999D01*
%TO.N,Net-(SW11-Pad1)*%
X121163604Y-98550000D02*
X126930000Y-98550000D01*
X127060000Y-98680000D02*
X147060000Y-98680000D01*
X107140000Y-98600000D02*
X121113604Y-98600000D01*
X107060000Y-98680000D02*
X107140000Y-98600000D01*
X167060000Y-98680000D02*
X161780000Y-98680000D01*
X121113604Y-98600000D02*
X121163604Y-98550000D01*
X126930000Y-98550000D02*
X127060000Y-98680000D01*
X147060000Y-98680000D02*
X157320000Y-98680000D01*
X161780000Y-98680000D02*
X161700000Y-98600000D01*
%TO.N,Net-(SW12-Pad1)*%
X107060000Y-118680000D02*
X127060000Y-118680000D01*
X147060000Y-118680000D02*
X167060000Y-118680000D01*
X127060000Y-118680000D02*
X147060000Y-118680000D01*
%TO.N,GND*%
X162475000Y-101425000D02*
X162475000Y-103125000D01*
X115300000Y-47150000D02*
X115300000Y-48850000D01*
X153300000Y-43200000D02*
X153600000Y-43200000D01*
X169300000Y-45500000D02*
X169300000Y-47200000D01*
X162475000Y-101425000D02*
X176875000Y-101425000D01*
X119800000Y-41500000D02*
X119800000Y-44620000D01*
X133150000Y-43200000D02*
X149500000Y-43200000D01*
X169300000Y-45500000D02*
X167650000Y-45500000D01*
X115300000Y-45450000D02*
X115300000Y-47150000D01*
X173200000Y-45500000D02*
X174000000Y-44700000D01*
X122475000Y-104825000D02*
X123350000Y-105700000D01*
X131980000Y-44370000D02*
X133150000Y-43200000D01*
X169300000Y-48900000D02*
X177100000Y-56700000D01*
X169300000Y-47200000D02*
X169300000Y-48900000D01*
X165350000Y-43200000D02*
X153600000Y-43200000D01*
X162475000Y-104825000D02*
X162475000Y-103125000D01*
X167650000Y-45500000D02*
X165350000Y-43200000D01*
X176875000Y-101425000D02*
X177100000Y-101200000D01*
X161600000Y-105700000D02*
X162475000Y-104825000D01*
X149500000Y-43200000D02*
X153300000Y-43200000D01*
X122475000Y-104825000D02*
X122475000Y-103125000D01*
X122475000Y-103125000D02*
X122475000Y-101425000D01*
X123350000Y-105700000D02*
X161600000Y-105700000D01*
X169300000Y-45500000D02*
X173200000Y-45500000D01*
X177100000Y-56700000D02*
X177100000Y-101200000D01*
%TO.N,Net-(SW10-Pad2)*%
X153410000Y-108890000D02*
X155450000Y-106850000D01*
X153410000Y-116140000D02*
X153410000Y-108890000D01*
%TO.N,Net-(SW2-Pad2)*%
X113410000Y-96140000D02*
X114570000Y-97300000D01*
X114570000Y-97300000D02*
X115300000Y-97300000D01*
%TO.N,Net-(SW6-Pad2)*%
X134870000Y-97600000D02*
X135400000Y-97600000D01*
X133410000Y-96140000D02*
X134870000Y-97600000D01*
%TO.N,Net-(SW14-Pad2)*%
X175200000Y-106900000D02*
X173410000Y-108690000D01*
X173410000Y-96140000D02*
X173410000Y-76140000D01*
X173410000Y-108690000D02*
X173410000Y-116140000D01*
%TO.N,Net-(SW1-PadS1)*%
X135800495Y-59299505D02*
X135800495Y-59400495D01*
X148345000Y-68645000D02*
X147220000Y-69770000D01*
X142215000Y-65815000D02*
X147685991Y-65815000D01*
X135800495Y-59400495D02*
X142215000Y-65815000D01*
X148345000Y-66474009D02*
X148345000Y-68645000D01*
X147685991Y-65815000D02*
X148345000Y-66474009D01*
%TD*%
M02*
