%TF.GenerationSoftware,KiCad,Pcbnew,(6.0.10)*%
%TF.CreationDate,2023-03-17T10:19:52+01:00*%
%TF.ProjectId,MacroBoard_16keys,4d616372-6f42-46f6-9172-645f31366b65,rev?*%
%TF.SameCoordinates,Original*%
%TF.FileFunction,Legend,Top*%
%TF.FilePolarity,Positive*%
%FSLAX46Y46*%
G04 Gerber Fmt 4.6, Leading zero omitted, Abs format (unit mm)*
G04 Created by KiCad (PCBNEW (6.0.10)) date 2023-03-17 10:19:52*
%MOMM*%
%LPD*%
G01*
G04 APERTURE LIST*
%ADD10C,0.150000*%
%ADD11C,0.120000*%
G04 APERTURE END LIST*
D10*
%TO.C,SW6*%
X128266666Y-81878761D02*
X128409523Y-81926380D01*
X128647619Y-81926380D01*
X128742857Y-81878761D01*
X128790476Y-81831142D01*
X128838095Y-81735904D01*
X128838095Y-81640666D01*
X128790476Y-81545428D01*
X128742857Y-81497809D01*
X128647619Y-81450190D01*
X128457142Y-81402571D01*
X128361904Y-81354952D01*
X128314285Y-81307333D01*
X128266666Y-81212095D01*
X128266666Y-81116857D01*
X128314285Y-81021619D01*
X128361904Y-80974000D01*
X128457142Y-80926380D01*
X128695238Y-80926380D01*
X128838095Y-80974000D01*
X129171428Y-80926380D02*
X129409523Y-81926380D01*
X129600000Y-81212095D01*
X129790476Y-81926380D01*
X130028571Y-80926380D01*
X130838095Y-80926380D02*
X130647619Y-80926380D01*
X130552380Y-80974000D01*
X130504761Y-81021619D01*
X130409523Y-81164476D01*
X130361904Y-81354952D01*
X130361904Y-81735904D01*
X130409523Y-81831142D01*
X130457142Y-81878761D01*
X130552380Y-81926380D01*
X130742857Y-81926380D01*
X130838095Y-81878761D01*
X130885714Y-81831142D01*
X130933333Y-81735904D01*
X130933333Y-81497809D01*
X130885714Y-81402571D01*
X130838095Y-81354952D01*
X130742857Y-81307333D01*
X130552380Y-81307333D01*
X130457142Y-81354952D01*
X130409523Y-81402571D01*
X130361904Y-81497809D01*
%TO.C,SW16*%
X167790476Y-121878761D02*
X167933333Y-121926380D01*
X168171428Y-121926380D01*
X168266666Y-121878761D01*
X168314285Y-121831142D01*
X168361904Y-121735904D01*
X168361904Y-121640666D01*
X168314285Y-121545428D01*
X168266666Y-121497809D01*
X168171428Y-121450190D01*
X167980952Y-121402571D01*
X167885714Y-121354952D01*
X167838095Y-121307333D01*
X167790476Y-121212095D01*
X167790476Y-121116857D01*
X167838095Y-121021619D01*
X167885714Y-120974000D01*
X167980952Y-120926380D01*
X168219047Y-120926380D01*
X168361904Y-120974000D01*
X168695238Y-120926380D02*
X168933333Y-121926380D01*
X169123809Y-121212095D01*
X169314285Y-121926380D01*
X169552380Y-120926380D01*
X170457142Y-121926380D02*
X169885714Y-121926380D01*
X170171428Y-121926380D02*
X170171428Y-120926380D01*
X170076190Y-121069238D01*
X169980952Y-121164476D01*
X169885714Y-121212095D01*
X171314285Y-120926380D02*
X171123809Y-120926380D01*
X171028571Y-120974000D01*
X170980952Y-121021619D01*
X170885714Y-121164476D01*
X170838095Y-121354952D01*
X170838095Y-121735904D01*
X170885714Y-121831142D01*
X170933333Y-121878761D01*
X171028571Y-121926380D01*
X171219047Y-121926380D01*
X171314285Y-121878761D01*
X171361904Y-121831142D01*
X171409523Y-121735904D01*
X171409523Y-121497809D01*
X171361904Y-121402571D01*
X171314285Y-121354952D01*
X171219047Y-121307333D01*
X171028571Y-121307333D01*
X170933333Y-121354952D01*
X170885714Y-121402571D01*
X170838095Y-121497809D01*
%TO.C,SW7*%
X128266666Y-101878761D02*
X128409523Y-101926380D01*
X128647619Y-101926380D01*
X128742857Y-101878761D01*
X128790476Y-101831142D01*
X128838095Y-101735904D01*
X128838095Y-101640666D01*
X128790476Y-101545428D01*
X128742857Y-101497809D01*
X128647619Y-101450190D01*
X128457142Y-101402571D01*
X128361904Y-101354952D01*
X128314285Y-101307333D01*
X128266666Y-101212095D01*
X128266666Y-101116857D01*
X128314285Y-101021619D01*
X128361904Y-100974000D01*
X128457142Y-100926380D01*
X128695238Y-100926380D01*
X128838095Y-100974000D01*
X129171428Y-100926380D02*
X129409523Y-101926380D01*
X129600000Y-101212095D01*
X129790476Y-101926380D01*
X130028571Y-100926380D01*
X130314285Y-100926380D02*
X130980952Y-100926380D01*
X130552380Y-101926380D01*
%TO.C,SW4*%
X108266666Y-121878761D02*
X108409523Y-121926380D01*
X108647619Y-121926380D01*
X108742857Y-121878761D01*
X108790476Y-121831142D01*
X108838095Y-121735904D01*
X108838095Y-121640666D01*
X108790476Y-121545428D01*
X108742857Y-121497809D01*
X108647619Y-121450190D01*
X108457142Y-121402571D01*
X108361904Y-121354952D01*
X108314285Y-121307333D01*
X108266666Y-121212095D01*
X108266666Y-121116857D01*
X108314285Y-121021619D01*
X108361904Y-120974000D01*
X108457142Y-120926380D01*
X108695238Y-120926380D01*
X108838095Y-120974000D01*
X109171428Y-120926380D02*
X109409523Y-121926380D01*
X109600000Y-121212095D01*
X109790476Y-121926380D01*
X110028571Y-120926380D01*
X110838095Y-121259714D02*
X110838095Y-121926380D01*
X110600000Y-120878761D02*
X110361904Y-121593047D01*
X110980952Y-121593047D01*
%TO.C,SW1*%
X106766666Y-40324761D02*
X106909523Y-40372380D01*
X107147619Y-40372380D01*
X107242857Y-40324761D01*
X107290476Y-40277142D01*
X107338095Y-40181904D01*
X107338095Y-40086666D01*
X107290476Y-39991428D01*
X107242857Y-39943809D01*
X107147619Y-39896190D01*
X106957142Y-39848571D01*
X106861904Y-39800952D01*
X106814285Y-39753333D01*
X106766666Y-39658095D01*
X106766666Y-39562857D01*
X106814285Y-39467619D01*
X106861904Y-39420000D01*
X106957142Y-39372380D01*
X107195238Y-39372380D01*
X107338095Y-39420000D01*
X107671428Y-39372380D02*
X107909523Y-40372380D01*
X108100000Y-39658095D01*
X108290476Y-40372380D01*
X108528571Y-39372380D01*
X109433333Y-40372380D02*
X108861904Y-40372380D01*
X109147619Y-40372380D02*
X109147619Y-39372380D01*
X109052380Y-39515238D01*
X108957142Y-39610476D01*
X108861904Y-39658095D01*
%TO.C,SW15*%
X167790476Y-101878761D02*
X167933333Y-101926380D01*
X168171428Y-101926380D01*
X168266666Y-101878761D01*
X168314285Y-101831142D01*
X168361904Y-101735904D01*
X168361904Y-101640666D01*
X168314285Y-101545428D01*
X168266666Y-101497809D01*
X168171428Y-101450190D01*
X167980952Y-101402571D01*
X167885714Y-101354952D01*
X167838095Y-101307333D01*
X167790476Y-101212095D01*
X167790476Y-101116857D01*
X167838095Y-101021619D01*
X167885714Y-100974000D01*
X167980952Y-100926380D01*
X168219047Y-100926380D01*
X168361904Y-100974000D01*
X168695238Y-100926380D02*
X168933333Y-101926380D01*
X169123809Y-101212095D01*
X169314285Y-101926380D01*
X169552380Y-100926380D01*
X170457142Y-101926380D02*
X169885714Y-101926380D01*
X170171428Y-101926380D02*
X170171428Y-100926380D01*
X170076190Y-101069238D01*
X169980952Y-101164476D01*
X169885714Y-101212095D01*
X171361904Y-100926380D02*
X170885714Y-100926380D01*
X170838095Y-101402571D01*
X170885714Y-101354952D01*
X170980952Y-101307333D01*
X171219047Y-101307333D01*
X171314285Y-101354952D01*
X171361904Y-101402571D01*
X171409523Y-101497809D01*
X171409523Y-101735904D01*
X171361904Y-101831142D01*
X171314285Y-101878761D01*
X171219047Y-101926380D01*
X170980952Y-101926380D01*
X170885714Y-101878761D01*
X170838095Y-101831142D01*
%TO.C,SW14*%
X167790476Y-81878761D02*
X167933333Y-81926380D01*
X168171428Y-81926380D01*
X168266666Y-81878761D01*
X168314285Y-81831142D01*
X168361904Y-81735904D01*
X168361904Y-81640666D01*
X168314285Y-81545428D01*
X168266666Y-81497809D01*
X168171428Y-81450190D01*
X167980952Y-81402571D01*
X167885714Y-81354952D01*
X167838095Y-81307333D01*
X167790476Y-81212095D01*
X167790476Y-81116857D01*
X167838095Y-81021619D01*
X167885714Y-80974000D01*
X167980952Y-80926380D01*
X168219047Y-80926380D01*
X168361904Y-80974000D01*
X168695238Y-80926380D02*
X168933333Y-81926380D01*
X169123809Y-81212095D01*
X169314285Y-81926380D01*
X169552380Y-80926380D01*
X170457142Y-81926380D02*
X169885714Y-81926380D01*
X170171428Y-81926380D02*
X170171428Y-80926380D01*
X170076190Y-81069238D01*
X169980952Y-81164476D01*
X169885714Y-81212095D01*
X171314285Y-81259714D02*
X171314285Y-81926380D01*
X171076190Y-80878761D02*
X170838095Y-81593047D01*
X171457142Y-81593047D01*
%TO.C,SW8*%
X128266666Y-121878761D02*
X128409523Y-121926380D01*
X128647619Y-121926380D01*
X128742857Y-121878761D01*
X128790476Y-121831142D01*
X128838095Y-121735904D01*
X128838095Y-121640666D01*
X128790476Y-121545428D01*
X128742857Y-121497809D01*
X128647619Y-121450190D01*
X128457142Y-121402571D01*
X128361904Y-121354952D01*
X128314285Y-121307333D01*
X128266666Y-121212095D01*
X128266666Y-121116857D01*
X128314285Y-121021619D01*
X128361904Y-120974000D01*
X128457142Y-120926380D01*
X128695238Y-120926380D01*
X128838095Y-120974000D01*
X129171428Y-120926380D02*
X129409523Y-121926380D01*
X129600000Y-121212095D01*
X129790476Y-121926380D01*
X130028571Y-120926380D01*
X130552380Y-121354952D02*
X130457142Y-121307333D01*
X130409523Y-121259714D01*
X130361904Y-121164476D01*
X130361904Y-121116857D01*
X130409523Y-121021619D01*
X130457142Y-120974000D01*
X130552380Y-120926380D01*
X130742857Y-120926380D01*
X130838095Y-120974000D01*
X130885714Y-121021619D01*
X130933333Y-121116857D01*
X130933333Y-121164476D01*
X130885714Y-121259714D01*
X130838095Y-121307333D01*
X130742857Y-121354952D01*
X130552380Y-121354952D01*
X130457142Y-121402571D01*
X130409523Y-121450190D01*
X130361904Y-121545428D01*
X130361904Y-121735904D01*
X130409523Y-121831142D01*
X130457142Y-121878761D01*
X130552380Y-121926380D01*
X130742857Y-121926380D01*
X130838095Y-121878761D01*
X130885714Y-121831142D01*
X130933333Y-121735904D01*
X130933333Y-121545428D01*
X130885714Y-121450190D01*
X130838095Y-121402571D01*
X130742857Y-121354952D01*
%TO.C,SW5*%
X160966666Y-40404761D02*
X161109523Y-40452380D01*
X161347619Y-40452380D01*
X161442857Y-40404761D01*
X161490476Y-40357142D01*
X161538095Y-40261904D01*
X161538095Y-40166666D01*
X161490476Y-40071428D01*
X161442857Y-40023809D01*
X161347619Y-39976190D01*
X161157142Y-39928571D01*
X161061904Y-39880952D01*
X161014285Y-39833333D01*
X160966666Y-39738095D01*
X160966666Y-39642857D01*
X161014285Y-39547619D01*
X161061904Y-39500000D01*
X161157142Y-39452380D01*
X161395238Y-39452380D01*
X161538095Y-39500000D01*
X161871428Y-39452380D02*
X162109523Y-40452380D01*
X162300000Y-39738095D01*
X162490476Y-40452380D01*
X162728571Y-39452380D01*
X163585714Y-39452380D02*
X163109523Y-39452380D01*
X163061904Y-39928571D01*
X163109523Y-39880952D01*
X163204761Y-39833333D01*
X163442857Y-39833333D01*
X163538095Y-39880952D01*
X163585714Y-39928571D01*
X163633333Y-40023809D01*
X163633333Y-40261904D01*
X163585714Y-40357142D01*
X163538095Y-40404761D01*
X163442857Y-40452380D01*
X163204761Y-40452380D01*
X163109523Y-40404761D01*
X163061904Y-40357142D01*
%TO.C,SW2*%
X108266666Y-81878761D02*
X108409523Y-81926380D01*
X108647619Y-81926380D01*
X108742857Y-81878761D01*
X108790476Y-81831142D01*
X108838095Y-81735904D01*
X108838095Y-81640666D01*
X108790476Y-81545428D01*
X108742857Y-81497809D01*
X108647619Y-81450190D01*
X108457142Y-81402571D01*
X108361904Y-81354952D01*
X108314285Y-81307333D01*
X108266666Y-81212095D01*
X108266666Y-81116857D01*
X108314285Y-81021619D01*
X108361904Y-80974000D01*
X108457142Y-80926380D01*
X108695238Y-80926380D01*
X108838095Y-80974000D01*
X109171428Y-80926380D02*
X109409523Y-81926380D01*
X109600000Y-81212095D01*
X109790476Y-81926380D01*
X110028571Y-80926380D01*
X110361904Y-81021619D02*
X110409523Y-80974000D01*
X110504761Y-80926380D01*
X110742857Y-80926380D01*
X110838095Y-80974000D01*
X110885714Y-81021619D01*
X110933333Y-81116857D01*
X110933333Y-81212095D01*
X110885714Y-81354952D01*
X110314285Y-81926380D01*
X110933333Y-81926380D01*
%TO.C,SW12*%
X147790476Y-121878761D02*
X147933333Y-121926380D01*
X148171428Y-121926380D01*
X148266666Y-121878761D01*
X148314285Y-121831142D01*
X148361904Y-121735904D01*
X148361904Y-121640666D01*
X148314285Y-121545428D01*
X148266666Y-121497809D01*
X148171428Y-121450190D01*
X147980952Y-121402571D01*
X147885714Y-121354952D01*
X147838095Y-121307333D01*
X147790476Y-121212095D01*
X147790476Y-121116857D01*
X147838095Y-121021619D01*
X147885714Y-120974000D01*
X147980952Y-120926380D01*
X148219047Y-120926380D01*
X148361904Y-120974000D01*
X148695238Y-120926380D02*
X148933333Y-121926380D01*
X149123809Y-121212095D01*
X149314285Y-121926380D01*
X149552380Y-120926380D01*
X150457142Y-121926380D02*
X149885714Y-121926380D01*
X150171428Y-121926380D02*
X150171428Y-120926380D01*
X150076190Y-121069238D01*
X149980952Y-121164476D01*
X149885714Y-121212095D01*
X150838095Y-121021619D02*
X150885714Y-120974000D01*
X150980952Y-120926380D01*
X151219047Y-120926380D01*
X151314285Y-120974000D01*
X151361904Y-121021619D01*
X151409523Y-121116857D01*
X151409523Y-121212095D01*
X151361904Y-121354952D01*
X150790476Y-121926380D01*
X151409523Y-121926380D01*
%TO.C,SW11*%
X147790476Y-101878761D02*
X147933333Y-101926380D01*
X148171428Y-101926380D01*
X148266666Y-101878761D01*
X148314285Y-101831142D01*
X148361904Y-101735904D01*
X148361904Y-101640666D01*
X148314285Y-101545428D01*
X148266666Y-101497809D01*
X148171428Y-101450190D01*
X147980952Y-101402571D01*
X147885714Y-101354952D01*
X147838095Y-101307333D01*
X147790476Y-101212095D01*
X147790476Y-101116857D01*
X147838095Y-101021619D01*
X147885714Y-100974000D01*
X147980952Y-100926380D01*
X148219047Y-100926380D01*
X148361904Y-100974000D01*
X148695238Y-100926380D02*
X148933333Y-101926380D01*
X149123809Y-101212095D01*
X149314285Y-101926380D01*
X149552380Y-100926380D01*
X150457142Y-101926380D02*
X149885714Y-101926380D01*
X150171428Y-101926380D02*
X150171428Y-100926380D01*
X150076190Y-101069238D01*
X149980952Y-101164476D01*
X149885714Y-101212095D01*
X151409523Y-101926380D02*
X150838095Y-101926380D01*
X151123809Y-101926380D02*
X151123809Y-100926380D01*
X151028571Y-101069238D01*
X150933333Y-101164476D01*
X150838095Y-101212095D01*
%TO.C,SW3*%
X108266666Y-101878761D02*
X108409523Y-101926380D01*
X108647619Y-101926380D01*
X108742857Y-101878761D01*
X108790476Y-101831142D01*
X108838095Y-101735904D01*
X108838095Y-101640666D01*
X108790476Y-101545428D01*
X108742857Y-101497809D01*
X108647619Y-101450190D01*
X108457142Y-101402571D01*
X108361904Y-101354952D01*
X108314285Y-101307333D01*
X108266666Y-101212095D01*
X108266666Y-101116857D01*
X108314285Y-101021619D01*
X108361904Y-100974000D01*
X108457142Y-100926380D01*
X108695238Y-100926380D01*
X108838095Y-100974000D01*
X109171428Y-100926380D02*
X109409523Y-101926380D01*
X109600000Y-101212095D01*
X109790476Y-101926380D01*
X110028571Y-100926380D01*
X110314285Y-100926380D02*
X110933333Y-100926380D01*
X110600000Y-101307333D01*
X110742857Y-101307333D01*
X110838095Y-101354952D01*
X110885714Y-101402571D01*
X110933333Y-101497809D01*
X110933333Y-101735904D01*
X110885714Y-101831142D01*
X110838095Y-101878761D01*
X110742857Y-101926380D01*
X110457142Y-101926380D01*
X110361904Y-101878761D01*
X110314285Y-101831142D01*
D11*
%TO.C,SW10*%
X142615000Y-80585000D02*
X142615000Y-66615000D01*
X156585000Y-80585000D02*
X142615000Y-80585000D01*
X156585000Y-66615000D02*
X156585000Y-80585000D01*
X142615000Y-66615000D02*
X156585000Y-66615000D01*
%TO.C,SW6*%
X136585000Y-80585000D02*
X122615000Y-80585000D01*
X122615000Y-80585000D02*
X122615000Y-66615000D01*
X136585000Y-66615000D02*
X136585000Y-80585000D01*
X122615000Y-66615000D02*
X136585000Y-66615000D01*
%TO.C,SW16*%
X176585000Y-106615000D02*
X176585000Y-120585000D01*
X162615000Y-106615000D02*
X176585000Y-106615000D01*
X176585000Y-120585000D02*
X162615000Y-120585000D01*
X162615000Y-120585000D02*
X162615000Y-106615000D01*
%TO.C,SW7*%
X122615000Y-86615000D02*
X136585000Y-86615000D01*
X136585000Y-100585000D02*
X122615000Y-100585000D01*
X136585000Y-86615000D02*
X136585000Y-100585000D01*
X122615000Y-100585000D02*
X122615000Y-86615000D01*
%TO.C,SW4*%
X102615000Y-106615000D02*
X116585000Y-106615000D01*
X102615000Y-120585000D02*
X102615000Y-106615000D01*
X116585000Y-120585000D02*
X102615000Y-120585000D01*
X116585000Y-106615000D02*
X116585000Y-120585000D01*
%TO.C,SW1*%
X115800000Y-47120000D02*
G75*
G03*
X115800000Y-47120000I-3000000J0D01*
G01*
X118900000Y-41220000D02*
X118900000Y-43620000D01*
X112800000Y-46620000D02*
X112800000Y-47620000D01*
X118900000Y-50620000D02*
X118900000Y-53020000D01*
X118900000Y-45820000D02*
X118900000Y-48420000D01*
X110800000Y-53020000D02*
X106700000Y-53020000D01*
X110800000Y-41220000D02*
X106700000Y-41220000D01*
X106700000Y-41220000D02*
X106700000Y-53020000D01*
X112300000Y-47120000D02*
X113300000Y-47120000D01*
X114800000Y-41220000D02*
X118900000Y-41220000D01*
X105300000Y-43320000D02*
X105000000Y-43020000D01*
X105600000Y-43020000D02*
X105300000Y-43320000D01*
X105000000Y-43020000D02*
X105600000Y-43020000D01*
X118900000Y-53020000D02*
X114800000Y-53020000D01*
%TO.C,SW15*%
X176585000Y-100585000D02*
X162615000Y-100585000D01*
X162615000Y-100585000D02*
X162615000Y-86615000D01*
X176585000Y-86615000D02*
X176585000Y-100585000D01*
X162615000Y-86615000D02*
X176585000Y-86615000D01*
%TO.C,SW14*%
X162615000Y-66615000D02*
X176585000Y-66615000D01*
X176585000Y-80585000D02*
X162615000Y-80585000D01*
X162615000Y-80585000D02*
X162615000Y-66615000D01*
X176585000Y-66615000D02*
X176585000Y-80585000D01*
%TO.C,SW8*%
X136585000Y-120585000D02*
X122615000Y-120585000D01*
X136585000Y-106615000D02*
X136585000Y-120585000D01*
X122615000Y-120585000D02*
X122615000Y-106615000D01*
X122615000Y-106615000D02*
X136585000Y-106615000D01*
%TO.C,SW5*%
X159200000Y-43100000D02*
X159800000Y-43100000D01*
X173100000Y-41300000D02*
X173100000Y-43700000D01*
X160900000Y-41300000D02*
X160900000Y-53100000D01*
X173100000Y-53100000D02*
X169000000Y-53100000D01*
X165000000Y-53100000D02*
X160900000Y-53100000D01*
X165000000Y-41300000D02*
X160900000Y-41300000D01*
X159500000Y-43400000D02*
X159200000Y-43100000D01*
X173100000Y-50700000D02*
X173100000Y-53100000D01*
X166500000Y-47200000D02*
X167500000Y-47200000D01*
X173100000Y-45900000D02*
X173100000Y-48500000D01*
X169000000Y-41300000D02*
X173100000Y-41300000D01*
X159800000Y-43100000D02*
X159500000Y-43400000D01*
X167000000Y-46700000D02*
X167000000Y-47700000D01*
X170000000Y-47200000D02*
G75*
G03*
X170000000Y-47200000I-3000000J0D01*
G01*
%TO.C,SW2*%
X102615000Y-80585000D02*
X102615000Y-66615000D01*
X116585000Y-80585000D02*
X102615000Y-80585000D01*
X102615000Y-66615000D02*
X116585000Y-66615000D01*
X116585000Y-66615000D02*
X116585000Y-80585000D01*
%TO.C,SW12*%
X142615000Y-120585000D02*
X142615000Y-106615000D01*
X156585000Y-106615000D02*
X156585000Y-120585000D01*
X142615000Y-106615000D02*
X156585000Y-106615000D01*
X156585000Y-120585000D02*
X142615000Y-120585000D01*
%TO.C,SW11*%
X156585000Y-100585000D02*
X142615000Y-100585000D01*
X142615000Y-100585000D02*
X142615000Y-86615000D01*
X156585000Y-86615000D02*
X156585000Y-100585000D01*
X142615000Y-86615000D02*
X156585000Y-86615000D01*
%TO.C,SW3*%
X116585000Y-100585000D02*
X102615000Y-100585000D01*
X116585000Y-86615000D02*
X116585000Y-100585000D01*
X102615000Y-86615000D02*
X116585000Y-86615000D01*
X102615000Y-100585000D02*
X102615000Y-86615000D01*
D10*
%TO.C,U1*%
X130710000Y-71040000D02*
X148490000Y-71040000D01*
X143410000Y-40560000D02*
X143410000Y-38020000D01*
X135790000Y-40560000D02*
X130710000Y-40560000D01*
X130710000Y-40560000D02*
X130710000Y-71040000D01*
X143410000Y-38020000D02*
X135790000Y-38020000D01*
X148490000Y-40560000D02*
X143410000Y-40560000D01*
X148490000Y-71040000D02*
X148490000Y-40560000D01*
X135790000Y-38020000D02*
X135790000Y-40560000D01*
%TD*%
M02*
