M48
; DRILL file {KiCad (6.0.10)} date Fri Mar 17 10:19:57 2023
; FORMAT={-:-/ absolute / inch / decimal}
; #@! TF.CreationDate,2023-03-17T10:19:57+01:00
; #@! TF.GenerationSoftware,Kicad,Pcbnew,(6.0.10)
; #@! TF.FileFunction,MixedPlating,1,2
FMAT,2
INCH
; #@! TA.AperFunction,Plated,PTH,ViaDrill
T1C0.0157
; #@! TA.AperFunction,Plated,PTH,ComponentDrill
T2C0.0394
; #@! TA.AperFunction,Plated,PTH,ComponentDrill
T3C0.0433
; #@! TA.AperFunction,Plated,PTH,ComponentDrill
T4C0.0591
; #@! TA.AperFunction,NonPlated,NPTH,ComponentDrill
T5C0.0669
; #@! TA.AperFunction,NonPlated,NPTH,ComponentDrill
T6C0.0866
; #@! TA.AperFunction,NonPlated,NPTH,ComponentDrill
T7C0.1575
%
G90
G05
T1
X4.1024Y-2.3583
X4.2598Y-2.0354
X4.3583Y-1.9921
X4.5394Y-3.8307
X4.5394Y-4.2087
X4.563Y-2.9961
X4.563Y-3.2913
X4.6181Y-4.2717
X5.3307Y-3.8425
X5.3307Y-4.2087
X5.3465Y-2.9882
X5.3465Y-3.2913
X5.3465Y-2.3346
X6.1142Y-3.8465
X6.1201Y-4.2067
X6.1339Y-2.9961
X6.1378Y-3.2913
X6.1937Y-3.885
X6.2008Y-3.0984
X6.3583Y-3.0945
X6.3661Y-3.8819
X6.562Y-1.753
X6.8976Y-3.8555
X6.8976Y-4.2087
T2
X4.1457Y-1.7567
X4.1457Y-1.8551
X4.1457Y-1.9535
X4.7165Y-1.7567
X4.7165Y-1.9535
X6.2795Y-1.7598
X6.2795Y-1.8583
X6.2795Y-1.9567
X6.8504Y-1.7598
X6.8504Y-1.9567
T3
X5.1961Y-1.6469
X5.1961Y-1.7469
X5.1961Y-1.8469
X5.1961Y-1.9469
X5.1961Y-2.0469
X5.1961Y-2.1469
X5.1961Y-2.2469
X5.1961Y-2.3469
X5.1961Y-2.4469
X5.1961Y-2.5469
X5.1961Y-2.6469
X5.1961Y-2.7469
X5.7961Y-1.6469
X5.7961Y-1.7469
X5.7961Y-1.8469
X5.7961Y-1.9469
X5.7961Y-2.0469
X5.7961Y-2.1469
X5.7961Y-2.2469
X5.7961Y-2.3469
X5.7961Y-2.4469
X5.7961Y-2.5469
X5.7961Y-2.6469
X5.7961Y-2.7469
T4
X4.215Y-3.0976
X4.215Y-3.885
X4.215Y-4.6724
X4.465Y-2.9976
X4.465Y-3.785
X4.465Y-4.5724
X5.0024Y-3.0976
X5.0024Y-3.885
X5.0024Y-4.6724
X5.2524Y-2.9976
X5.2524Y-3.785
X5.2524Y-4.5724
X5.7898Y-3.0976
X5.7898Y-3.885
X5.7898Y-4.6724
X6.0398Y-2.9976
X6.0398Y-3.785
X6.0398Y-4.5724
X6.5772Y-3.0976
X6.5772Y-3.885
X6.5772Y-4.6724
X6.8272Y-2.9976
X6.8272Y-3.785
X6.8272Y-4.5724
T5
X4.115Y-2.8976
X4.115Y-3.685
X4.115Y-4.4724
X4.515Y-2.8976
X4.515Y-3.685
X4.515Y-4.4724
X4.9024Y-2.8976
X4.9024Y-3.685
X4.9024Y-4.4724
X5.3024Y-2.8976
X5.3024Y-3.685
X5.3024Y-4.4724
X5.6898Y-2.8976
X5.6898Y-3.685
X5.6898Y-4.4724
X6.0898Y-2.8976
X6.0898Y-3.685
X6.0898Y-4.4724
X6.4772Y-2.8976
X6.4772Y-3.685
X6.4772Y-4.4724
X6.8772Y-2.8976
X6.8772Y-3.685
X6.8772Y-4.4724
T6
X4.4449Y-2.3287
X6.5709Y-2.3307
T7
X4.315Y-2.8976
X4.315Y-3.685
X4.315Y-4.4724
X5.1024Y-2.8976
X5.1024Y-3.685
X5.1024Y-4.4724
X5.8898Y-2.8976
X5.8898Y-3.685
X5.8898Y-4.4724
X6.6772Y-2.8976
X6.6772Y-3.685
X6.6772Y-4.4724
T4
G00X4.4154Y-1.6346
M15
G01X4.4665Y-1.6346
M16
G05
G00X4.4154Y-2.0756
M15
G01X4.4665Y-2.0756
M16
G05
G00X6.5492Y-1.6378
M15
G01X6.6004Y-1.6378
M16
G05
G00X6.5492Y-2.0787
M15
G01X6.6004Y-2.0787
M16
G05
T0
M30
