%TF.GenerationSoftware,KiCad,Pcbnew,(6.0.10)*%
%TF.CreationDate,2023-03-17T10:19:52+01:00*%
%TF.ProjectId,MacroBoard_16keys,4d616372-6f42-46f6-9172-645f31366b65,rev?*%
%TF.SameCoordinates,Original*%
%TF.FileFunction,Soldermask,Top*%
%TF.FilePolarity,Negative*%
%FSLAX46Y46*%
G04 Gerber Fmt 4.6, Leading zero omitted, Abs format (unit mm)*
G04 Created by KiCad (PCBNEW (6.0.10)) date 2023-03-17 10:19:52*
%MOMM*%
%LPD*%
G01*
G04 APERTURE LIST*
%ADD10C,2.200000*%
%ADD11C,4.000000*%
%ADD12C,1.700000*%
%ADD13C,2.000000*%
%ADD14R,3.200000X2.000000*%
%ADD15R,2.000000X2.000000*%
%ADD16R,1.600000X1.600000*%
%ADD17C,1.600000*%
G04 APERTURE END LIST*
D10*
%TO.C,SW10*%
X153410000Y-76140000D03*
X147060000Y-78680000D03*
D11*
X149600000Y-73600000D03*
D12*
X154680000Y-73600000D03*
X144520000Y-73600000D03*
%TD*%
D10*
%TO.C,REF\u002A\u002A*%
X166900000Y-59200000D03*
%TD*%
D12*
%TO.C,SW6*%
X124520000Y-73600000D03*
X134680000Y-73600000D03*
D11*
X129600000Y-73600000D03*
D10*
X127060000Y-78680000D03*
X133410000Y-76140000D03*
%TD*%
D12*
%TO.C,SW16*%
X164520000Y-113600000D03*
D11*
X169600000Y-113600000D03*
D12*
X174680000Y-113600000D03*
D10*
X167060000Y-118680000D03*
X173410000Y-116140000D03*
%TD*%
D11*
%TO.C,SW7*%
X129600000Y-93600000D03*
D12*
X134680000Y-93600000D03*
X124520000Y-93600000D03*
D10*
X127060000Y-98680000D03*
X133410000Y-96140000D03*
%TD*%
%TO.C,SW4*%
X113410000Y-116140000D03*
X107060000Y-118680000D03*
D11*
X109600000Y-113600000D03*
D12*
X114680000Y-113600000D03*
X104520000Y-113600000D03*
%TD*%
D13*
%TO.C,SW1*%
X119800000Y-44620000D03*
X119800000Y-49620000D03*
D14*
X112800000Y-52720000D03*
X112800000Y-41520000D03*
D13*
X105300000Y-47120000D03*
X105300000Y-49620000D03*
D15*
X105300000Y-44620000D03*
%TD*%
D12*
%TO.C,SW15*%
X164520000Y-93600000D03*
X174680000Y-93600000D03*
D11*
X169600000Y-93600000D03*
D10*
X167060000Y-98680000D03*
X173410000Y-96140000D03*
%TD*%
D12*
%TO.C,SW14*%
X164520000Y-73600000D03*
D11*
X169600000Y-73600000D03*
D12*
X174680000Y-73600000D03*
D10*
X167060000Y-78680000D03*
X173410000Y-76140000D03*
%TD*%
D12*
%TO.C,SW8*%
X134680000Y-113600000D03*
X124520000Y-113600000D03*
D11*
X129600000Y-113600000D03*
D10*
X127060000Y-118680000D03*
X133410000Y-116140000D03*
%TD*%
D15*
%TO.C,SW5*%
X159500000Y-44700000D03*
D13*
X159500000Y-49700000D03*
X159500000Y-47200000D03*
D14*
X167000000Y-41600000D03*
X167000000Y-52800000D03*
D13*
X174000000Y-49700000D03*
X174000000Y-44700000D03*
%TD*%
D12*
%TO.C,SW2*%
X104520000Y-73600000D03*
X114680000Y-73600000D03*
D11*
X109600000Y-73600000D03*
D10*
X107060000Y-78680000D03*
X113410000Y-76140000D03*
%TD*%
D11*
%TO.C,SW12*%
X149600000Y-113600000D03*
D12*
X154680000Y-113600000D03*
X144520000Y-113600000D03*
D10*
X147060000Y-118680000D03*
X153410000Y-116140000D03*
%TD*%
%TO.C,SW11*%
X153410000Y-96140000D03*
X147060000Y-98680000D03*
D12*
X144520000Y-93600000D03*
D11*
X149600000Y-93600000D03*
D12*
X154680000Y-93600000D03*
%TD*%
D11*
%TO.C,SW3*%
X109600000Y-93600000D03*
D12*
X104520000Y-93600000D03*
X114680000Y-93600000D03*
D10*
X107060000Y-98680000D03*
X113410000Y-96140000D03*
%TD*%
%TO.C,REF\u002A\u002A*%
X112900000Y-59150000D03*
%TD*%
D16*
%TO.C,U1*%
X147220000Y-41830000D03*
D17*
X147220000Y-44370000D03*
X147220000Y-46910000D03*
X147220000Y-49450000D03*
X147220000Y-51990000D03*
X147220000Y-54530000D03*
X147220000Y-57070000D03*
X147220000Y-59610000D03*
X147220000Y-62150000D03*
X147220000Y-64690000D03*
X147220000Y-67230000D03*
X147220000Y-69770000D03*
X131980000Y-69770000D03*
X131980000Y-67230000D03*
X131980000Y-64690000D03*
X131980000Y-62150000D03*
X131980000Y-59610000D03*
X131980000Y-57070000D03*
X131980000Y-54530000D03*
X131980000Y-51990000D03*
X131980000Y-49450000D03*
X131980000Y-46910000D03*
X131980000Y-44370000D03*
X131980000Y-41830000D03*
%TD*%
M02*
